<?xml version="1.0" encoding="UTF-8"?>
<svg xmlns="http://www.w3.org/2000/svg" xmlns:xlink="http://www.w3.org/1999/xlink" width="32pt" height="32pt" viewBox="0 0 32 32" version="1.1">
<g id="surface1">
<path style=" stroke:none;fill-rule:nonzero;fill:rgb(0%,0%,0%);fill-opacity:1;" d="M 29.824219 8.351562 C 28.394531 5.902344 26.453125 3.964844 24.007812 2.535156 C 21.558594 1.105469 18.882812 0.390625 15.984375 0.390625 C 13.082031 0.390625 10.410156 1.105469 7.960938 2.535156 C 5.511719 3.964844 3.574219 5.902344 2.144531 8.351562 C 0.714844 10.800781 0 13.472656 0 16.375 C 0 19.855469 1.015625 22.988281 3.050781 25.769531 C 5.082031 28.550781 7.707031 30.476562 10.925781 31.546875 C 11.300781 31.613281 11.578125 31.566406 11.757812 31.398438 C 11.9375 31.234375 12.027344 31.023438 12.027344 30.777344 C 12.027344 30.734375 12.023438 30.359375 12.019531 29.652344 C 12.011719 28.945312 12.007812 28.328125 12.007812 27.800781 L 11.527344 27.882812 C 11.222656 27.9375 10.839844 27.960938 10.375 27.957031 C 9.910156 27.949219 9.425781 27.902344 8.925781 27.808594 C 8.429688 27.71875 7.964844 27.511719 7.535156 27.1875 C 7.101562 26.859375 6.796875 26.433594 6.617188 25.90625 L 6.410156 25.425781 C 6.269531 25.109375 6.050781 24.753906 5.753906 24.367188 C 5.457031 23.976562 5.152344 23.714844 4.847656 23.574219 L 4.703125 23.472656 C 4.605469 23.402344 4.515625 23.316406 4.433594 23.222656 C 4.347656 23.125 4.289062 23.027344 4.246094 22.929688 C 4.203125 22.832031 4.238281 22.753906 4.347656 22.691406 C 4.460938 22.628906 4.660156 22.597656 4.953125 22.597656 L 5.371094 22.660156 C 5.648438 22.714844 5.988281 22.882812 6.398438 23.160156 C 6.808594 23.4375 7.144531 23.796875 7.410156 24.242188 C 7.726562 24.808594 8.113281 25.242188 8.5625 25.542969 C 9.015625 25.839844 9.46875 25.988281 9.925781 25.988281 C 10.382812 25.988281 10.78125 25.953125 11.113281 25.886719 C 11.445312 25.816406 11.757812 25.710938 12.050781 25.574219 C 12.175781 24.644531 12.515625 23.929688 13.070312 23.429688 C 12.277344 23.347656 11.566406 23.21875 10.9375 23.054688 C 10.304688 22.886719 9.652344 22.617188 8.980469 22.242188 C 8.308594 21.867188 7.75 21.402344 7.304688 20.847656 C 6.859375 20.292969 6.496094 19.566406 6.210938 18.664062 C 5.925781 17.761719 5.785156 16.71875 5.785156 15.542969 C 5.785156 13.863281 6.332031 12.433594 7.429688 11.253906 C 6.917969 9.992188 6.964844 8.578125 7.574219 7.007812 C 7.976562 6.882812 8.574219 6.976562 9.363281 7.289062 C 10.15625 7.601562 10.734375 7.867188 11.101562 8.089844 C 11.46875 8.3125 11.765625 8.5 11.988281 8.652344 C 13.277344 8.292969 14.609375 8.113281 15.984375 8.113281 C 17.355469 8.113281 18.6875 8.292969 19.980469 8.652344 L 20.769531 8.152344 C 21.3125 7.820312 21.949219 7.515625 22.683594 7.238281 C 23.417969 6.960938 23.980469 6.882812 24.371094 7.007812 C 24.996094 8.578125 25.050781 9.992188 24.535156 11.253906 C 25.632812 12.433594 26.179688 13.863281 26.179688 15.542969 C 26.179688 16.71875 26.039062 17.765625 25.753906 18.671875 C 25.46875 19.582031 25.101562 20.308594 24.652344 20.859375 C 24.199219 21.40625 23.640625 21.867188 22.964844 22.242188 C 22.292969 22.617188 21.640625 22.886719 21.007812 23.054688 C 20.378906 23.222656 19.667969 23.347656 18.875 23.429688 C 19.597656 24.054688 19.957031 25.039062 19.957031 26.382812 L 19.957031 30.773438 C 19.957031 31.023438 20.046875 31.234375 20.21875 31.398438 C 20.390625 31.566406 20.667969 31.613281 21.039062 31.542969 C 24.261719 30.476562 26.886719 28.550781 28.917969 25.769531 C 30.949219 22.988281 31.96875 19.855469 31.96875 16.375 C 31.964844 13.472656 31.25 10.800781 29.824219 8.351562 Z M 29.824219 8.351562 "/>
</g>
</svg>
